<svg xmlns="http://www.w3.org/2000/svg" viewBox="0 0 512 512"><g id="CIRCLE_OUTLINE_BLACK" data-name="CIRCLE OUTLINE BLACK"><circle cx="256" cy="256" r="256" fill="#1b1f2b"/><path d="M386.91172,120.53268h35.0057L279.97651,282.61393a11.26047,11.26047,0,0,0-.23976,14.62567l81.75988,95.18677H325.05235l-75.526-88.23357-3.83624-4.79531a11.26519,11.26519,0,0,1,.23976-14.62567Z" fill="#17b5cb"/><path d="M308.029,297.2396a11.26934,11.26934,0,0,1-2.39765-9.83037,15.23843,15.23843,0,0,1,3.35672-5.27482l9.35084-10.3099,104.2978,120.60188H389.54913S328.409,320.97636,308.029,297.2396Z" fill="#17b5cb"/><path d="M125.80757,392.42639H89.36328L201.0938,263.193a10.93932,10.93932,0,0,0,0-14.38592L90.32234,120.53268H125.328L236.81879,249.76611c2.87719,3.83624,3.35672,9.35084.23977,12.94732C207.80723,296.52032,125.80757,392.42639,125.80757,392.42639Z" fill="#17b5cb"/><path d="M186.70789,120.53268H153.14078L256.47952,240.1755s.23976-.23976,11.74849-13.90638c3.117-3.59647,3.83624-8.152.23977-11.74849C246.88892,192.46223,186.70789,120.53268,186.70789,120.53268Z" fill="#17b5cb"/><path d="M287.40922,203.971,359.099,120.53268H325.05235L287.649,164.16994l-10.78943,12.70755a11.2605,11.2605,0,0,0-.23976,14.62568C279.2572,194.62011,287.40922,203.971,287.40922,203.971Z" fill="#17b5cb"/><path d="M225.0703,308.9881l-71.68975,83.43827h33.80687l37.40336-43.63726,10.78943-12.70756a11.26048,11.26048,0,0,0,.23976-14.62567Z" fill="#17b5cb"/></g></svg>