<svg width="500" height="485" viewBox="0 0 500 485" fill="none" xmlns="http://www.w3.org/2000/svg">
<path fill-rule="evenodd" clip-rule="evenodd" d="M86.4841 50.2385L0.360671 100.027L0.180335 201.561L0 303.096L36.6958 324.525L73.3917 345.959L94.661 334.319C106.357 327.92 117.883 320.949 120.264 318.826C122.649 316.708 108.176 306.027 88.0968 295.094L51.5916 275.21L51.5607 202.839L51.5246 130.467L109.49 97.2135C141.373 78.9223 170.212 63.2382 173.576 62.3571C176.941 61.4709 206.506 76.2688 239.27 95.2401L298.843 129.726L298.796 202.468L298.75 275.21L263.085 295.743L227.414 316.281L253.001 331.053L278.588 345.825L313.187 325.905L347.791 305.981L349.182 202.963L350.573 99.9443L263.373 49.749C215.414 22.1422 175.374 -0.245289 174.39 0.00202959C173.411 0.249348 133.851 22.8583 86.4841 50.2385ZM186.751 166.396L149.535 187.619L149.478 288.725L149.421 389.832L235.875 439.435C339.254 498.75 315.593 498.59 414.773 440.646L497.213 392.486L498.604 289.271L500 186.052L464.536 165.607L429.076 145.162L405.2 158.662C375.475 175.469 374.976 173.511 414.871 196.842L448.264 216.369L448.12 289.586L447.981 362.802L386.991 397.597L326.001 432.391L264.759 396.814L203.522 361.236L202.095 288.978L200.668 216.715L236.838 197.012C279.763 173.635 279.171 175.598 248.447 158.667L223.967 145.173L186.751 166.396Z" fill="black"/>
</svg>
