<svg version="1.1" id="Layer_1" xmlns="http://www.w3.org/2000/svg" xmlns:xlink="http://www.w3.org/1999/xlink" x="0px" y="0px"
	 width="100%" viewBox="0 0 256 256" enable-background="new 0 0 256 256" xml:space="preserve">
<path fill="#19D8C9" opacity="1.000000" stroke="none" 
	d="
M168.000000,257.000000 
	C112.000000,257.000000 56.500008,257.000000 1.000007,257.000000 
	C1.000005,171.666672 1.000005,86.333351 1.000003,1.000019 
	C86.333321,1.000013 171.666641,1.000013 257.000000,1.000006 
	C257.000000,86.333313 257.000000,171.666626 257.000000,256.999969 
	C227.500000,257.000000 198.000000,257.000000 168.000000,257.000000 
M166.306671,71.085342 
	C171.131195,66.751068 172.663513,61.956661 170.830399,56.931290 
	C169.001099,51.916386 164.556992,49.101185 158.175049,49.034611 
	C154.511246,48.996395 150.836990,48.949203 147.182724,49.164963 
	C115.474487,51.037071 88.565620,76.368965 87.067574,108.134521 
	C85.672127,137.724594 86.540009,167.423340 86.517319,197.074310 
	C86.513573,201.972717 88.981865,205.676468 93.440254,207.814697 
	C101.632301,211.743561 110.517746,205.879974 110.653679,196.190567 
	C110.856987,181.698807 110.703621,167.202133 110.728638,152.707596 
	C110.731659,150.956146 110.900055,149.204987 111.008904,147.127167 
	C127.020836,147.127167 142.490051,147.157394 157.959076,147.114883 
	C166.156433,147.092361 171.563843,142.244553 171.568436,135.070175 
	C171.573013,127.913231 166.149979,123.016968 157.963791,122.981812 
	C144.135864,122.922417 130.307510,122.962959 116.479347,122.961548 
	C114.704842,122.961372 112.930344,122.961525 109.699425,122.961525 
	C110.968208,114.654716 111.108131,106.856255 113.451675,99.788467 
	C118.785477,83.702461 134.166794,73.575073 151.465378,73.120491 
	C156.207733,72.995865 160.929291,72.080376 166.306671,71.085342 
z"/>
<path fill="#FBFEFE" opacity="1.000000" stroke="none" 
	d="
M165.983536,71.306580 
	C160.929291,72.080376 156.207733,72.995865 151.465378,73.120491 
	C134.166794,73.575073 118.785477,83.702461 113.451675,99.788467 
	C111.108131,106.856255 110.968208,114.654716 109.699425,122.961525 
	C112.930344,122.961525 114.704842,122.961372 116.479347,122.961548 
	C130.307510,122.962959 144.135864,122.922417 157.963791,122.981812 
	C166.149979,123.016968 171.573013,127.913231 171.568436,135.070175 
	C171.563843,142.244553 166.156433,147.092361 157.959076,147.114883 
	C142.490051,147.157394 127.020836,147.127167 111.008904,147.127167 
	C110.900055,149.204987 110.731659,150.956146 110.728638,152.707596 
	C110.703621,167.202133 110.856987,181.698807 110.653679,196.190567 
	C110.517746,205.879974 101.632301,211.743561 93.440254,207.814697 
	C88.981865,205.676468 86.513573,201.972717 86.517319,197.074310 
	C86.540009,167.423340 85.672127,137.724594 87.067574,108.134521 
	C88.565620,76.368965 115.474487,51.037071 147.182724,49.164963 
	C150.836990,48.949203 154.511246,48.996395 158.175049,49.034611 
	C164.556992,49.101185 169.001099,51.916386 170.830399,56.931290 
	C172.663513,61.956661 171.131195,66.751068 165.983536,71.306580 
z"/>
</svg>