<svg version="1.1" id="Layer_1" xmlns="http://www.w3.org/2000/svg" xmlns:xlink="http://www.w3.org/1999/xlink" x="0px" y="0px"
	 width="100%" viewBox="0 0 200 200" enable-background="new 0 0 200 200" xml:space="preserve">
<path fill="#FEFEFE" opacity="1.000000" stroke="none" 
	d="
M106.000000,201.000000 
	C70.688446,201.000000 35.876896,201.000000 1.032673,201.000000 
	C1.032673,134.396820 1.032673,67.793610 1.032673,1.095204 
	C67.561386,1.095204 134.122955,1.095204 200.842255,1.095204 
	C200.842255,67.666374 200.842255,134.333145 200.842255,201.000000 
	C169.460556,201.000000 137.980286,201.000000 106.000000,201.000000 
M119.790955,74.408279 
	C119.653358,74.667122 119.438683,74.810707 118.912346,74.397888 
	C118.701591,74.123077 118.429192,73.939911 118.078720,73.128540 
	C113.421471,68.070076 108.764221,63.011616 103.860466,57.407242 
	C103.381119,56.820549 102.901779,56.233856 102.245964,55.431175 
	C102.066223,56.313206 101.919159,57.034859 101.037132,57.854134 
	C99.826691,58.286503 98.332069,58.405891 97.453430,59.203686 
	C92.864342,63.370556 88.431702,67.709717 83.280067,72.216927 
	C81.898796,73.187263 80.517517,74.157600 79.047371,74.355721 
	C78.992912,73.585457 78.938454,72.815193 78.917343,71.349548 
	C77.941444,70.256607 77.035164,69.090775 75.978958,68.081909 
	C64.310165,56.936092 52.586853,45.847107 40.959377,34.658482 
	C38.706123,32.490273 36.851200,31.682947 34.319801,34.972630 
	C32.428646,35.620556 30.537493,36.268482 27.241756,37.397633 
	C38.022953,47.103180 47.485134,55.621307 56.980907,64.850876 
	C62.619980,70.284859 68.259056,75.718842 73.906059,81.515266 
	C73.906059,81.515266 73.866341,81.875618 73.177277,82.043716 
	C68.690308,85.989105 64.135948,89.861717 59.753529,93.919998 
	C58.252075,95.310394 57.181206,97.165764 55.303997,99.090614 
	C55.427013,100.042152 55.190590,101.355530 55.728264,101.889641 
	C61.530148,107.653023 67.453880,113.293755 73.152954,119.640015 
	C72.739525,120.425674 72.326096,121.211327 71.292068,122.260284 
	C70.612526,122.711372 69.851265,123.075615 69.265755,123.626625 
	C60.991112,131.413727 52.661983,139.145584 44.515545,147.065170 
	C40.190369,151.269913 36.192123,155.810974 31.351353,160.166397 
	C30.497803,161.119247 29.644253,162.072083 28.821230,162.990845 
	C33.685356,168.649734 36.758442,169.442490 40.733078,165.684967 
	C45.676964,161.011139 50.310978,156.009537 55.760162,151.031601 
	C56.860722,149.742355 57.961285,148.453125 59.756332,147.035202 
	C67.066170,140.443420 74.376015,133.851654 81.670006,127.274170 
	C84.061996,129.307938 86.463669,131.349945 89.108330,133.986389 
	C91.951057,136.730759 94.673042,139.616623 97.673279,142.176376 
	C100.247368,144.372559 102.772797,145.826309 105.866554,142.136887 
	C108.987640,138.414871 112.829880,135.260925 116.566299,132.107010 
	C118.441994,130.523743 120.784500,129.493484 123.183456,128.842636 
	C132.089401,137.278549 140.995346,145.714462 149.945297,154.050735 
	C149.945297,154.050735 149.848709,154.101089 150.131897,154.712677 
	C152.735275,156.862549 155.338638,159.012421 157.973923,161.871048 
	C159.860168,163.683075 161.671860,165.582550 163.659012,167.276184 
	C164.969147,168.392792 167.221039,170.348251 167.857193,169.961945 
	C170.129868,168.581696 171.892593,166.361786 173.848251,164.459564 
	C173.263718,163.909622 172.679199,163.359665 172.036987,162.126938 
	C160.341675,150.789825 148.646362,139.452698 136.955811,128.039948 
	C136.955811,128.039948 136.889999,128.072968 136.733643,127.449577 
	C135.491806,126.306992 134.249969,125.164406 132.807373,123.559113 
	C132.537048,123.371964 132.266724,123.184814 131.964111,122.482246 
	C131.920547,122.315712 131.876999,122.149170 131.605759,121.266144 
	C131.077728,120.727478 130.549713,120.188805 130.503998,119.121750 
	C136.055542,112.427162 141.607101,105.732582 147.158646,99.037994 
	C147.826981,99.609108 148.495331,100.180214 149.163666,100.751328 
	C148.132919,100.127449 147.102173,99.503563 145.797516,98.276031 
	C141.832428,94.600410 137.867355,90.924789 133.315659,86.869659 
	C131.822342,85.275475 130.329025,83.681297 129.089676,81.442657 
	C133.717850,76.976440 138.346024,72.510231 143.483383,67.899910 
	C143.682037,67.618553 143.880676,67.337196 144.692795,66.820869 
	C145.165207,65.894981 145.637619,64.969093 146.744507,63.791348 
	C155.318466,55.918095 163.923080,48.077286 172.386307,40.086746 
	C172.867477,39.632462 172.190750,37.951809 171.929138,36.329021 
	C171.655289,36.123608 171.381424,35.918198 170.919937,35.226791 
	C170.572708,34.840576 170.225464,34.454361 169.844360,33.369431 
	C168.586884,32.986656 167.329407,32.603886 165.395218,32.208012 
	C158.921570,38.445274 152.447922,44.682541 145.383438,51.236061 
	C141.961090,54.307896 138.358032,57.204536 135.164795,60.498470 
	C131.631104,64.143608 128.472382,68.152260 124.999794,72.444107 
	C124.999794,72.444107 124.933884,72.905891 124.494026,72.948799 
	C124.494026,72.948799 124.059486,72.868164 123.756737,72.261330 
	C122.512703,72.868118 121.268677,73.474899 119.790955,74.408279 
z"/>
<path fill="#2D1E73" opacity="1.000000" stroke="none" 
	d="
M79.136238,75.127937 
	C80.517517,74.157600 81.898796,73.187263 83.815399,72.407959 
	C86.143143,71.927933 88.126694,71.548424 89.687988,70.524841 
	C92.889931,68.425652 95.865479,65.981133 99.211761,63.843590 
	C100.023041,64.360161 100.556793,64.711914 100.927475,65.348076 
	C99.214867,67.442032 97.665337,69.251587 95.816322,71.198837 
	C93.684029,73.221718 91.851204,75.106895 89.673927,77.051750 
	C85.560829,80.852318 81.792191,84.593201 77.776093,88.430824 
	C77.034004,89.040657 76.539375,89.553757 75.765747,90.160019 
	C75.020409,90.854691 74.554070,91.456192 73.866348,92.178223 
	C73.451363,92.568604 73.257782,92.838470 72.750610,93.219711 
	C70.011848,95.552185 67.586678,97.773293 64.713562,99.922554 
	C63.667873,99.898506 63.070122,99.946304 62.315464,99.847687 
	C61.800636,99.473709 61.442711,99.246155 61.227318,98.716034 
	C65.130424,94.819862 68.996620,91.327225 72.587372,87.571259 
	C73.668159,86.440742 73.982918,84.577888 75.044250,83.024673 
	C80.485802,81.435272 81.304802,80.097107 79.138863,76.702515 
	C79.163246,75.967987 79.149742,75.547958 79.136238,75.127937 
z"/>
<path fill="#1D3A81" opacity="1.000000" stroke="none" 
	d="
M172.094666,162.809723 
	C172.679199,163.359665 173.263718,163.909622 173.848251,164.459564 
	C171.892593,166.361786 170.129868,168.581696 167.857193,169.961945 
	C167.221039,170.348251 164.969147,168.392792 163.659012,167.276184 
	C161.671860,165.582550 159.860168,163.683075 157.949341,161.158356 
	C156.022110,157.326019 154.272324,154.011795 149.848709,154.101089 
	C149.848709,154.101089 149.945297,154.050735 149.953598,153.722168 
	C148.688660,151.615967 147.498230,149.771423 146.126083,148.073730 
	C142.528381,143.622406 138.851410,139.235138 135.537094,134.894928 
	C137.270370,135.577454 138.672562,136.187393 140.349457,136.968506 
	C141.368240,137.515732 142.112366,137.891769 142.887756,138.610229 
	C143.111359,139.580154 143.109848,140.412918 143.524750,140.804703 
	C151.000320,147.863708 158.513855,154.882828 166.078232,161.846420 
	C166.449722,162.188400 167.359604,161.945572 168.008774,161.986801 
	C167.998779,161.998535 168.023468,161.982727 168.002548,162.320709 
	C168.997955,162.800720 170.014297,162.942764 171.299820,163.028336 
	C171.744247,162.917816 171.919464,162.863770 172.094666,162.809723 
z"/>
<path fill="#34146A" opacity="1.000000" stroke="none" 
	d="
M56.947319,64.139435 
	C47.485134,55.621307 38.022953,47.103180 27.241756,37.397633 
	C30.537493,36.268482 32.428646,35.620556 34.553802,35.005112 
	C34.787804,35.037598 34.914619,35.239799 34.932865,35.414482 
	C34.951111,35.589165 34.965553,35.940136 34.708130,36.021324 
	C34.192883,36.578899 33.935059,37.055290 33.677235,37.531685 
	C34.077415,37.626560 34.477596,37.721436 35.143250,37.974033 
	C35.942799,38.415791 36.476879,38.699825 37.290627,39.118847 
	C38.660442,40.184513 39.750584,41.115192 41.012810,42.336288 
	C44.776161,46.091625 48.367424,49.556553 52.122475,53.301666 
	C53.083755,54.532097 53.802479,55.564953 54.694756,56.415798 
	C56.704952,58.332649 58.801079,60.159382 60.487061,62.014946 
	C59.057030,62.717888 58.002174,63.428661 56.947319,64.139435 
z"/>
<path fill="#24256F" opacity="1.000000" stroke="none" 
	d="
M122.915909,128.213135 
	C120.784500,129.493484 118.441994,130.523743 116.566299,132.107010 
	C112.829880,135.260925 108.987640,138.414871 105.866554,142.136887 
	C102.772797,145.826309 100.247368,144.372559 97.673279,142.176376 
	C94.673042,139.616623 91.951057,136.730759 89.024193,133.240204 
	C88.972763,131.293808 89.005478,130.093582 89.338928,129.045258 
	C91.748955,131.216248 93.725983,133.408432 96.031723,135.170471 
	C96.972916,135.889709 98.626373,135.676895 100.236977,136.024399 
	C101.356560,136.113312 102.194954,136.065948 103.341530,136.158752 
	C105.402985,135.512741 107.156258,134.726578 108.948639,133.965912 
	C108.987732,133.991394 108.942551,133.909714 109.230682,133.830765 
	C109.750145,133.232956 109.981468,132.714096 110.107483,132.114319 
	C110.002167,132.033401 110.196152,132.215164 110.494843,132.208282 
	C111.192619,131.797623 111.591698,131.393829 111.995392,130.995026 
	C112.000000,131.000000 111.990204,130.990601 112.312859,130.881699 
	C115.007576,128.811005 117.379631,126.849213 120.042427,124.814659 
	C120.520775,124.673149 120.708382,124.604393 121.234985,124.664383 
	C122.046944,124.891029 122.519890,124.988937 122.994110,125.477982 
	C122.968887,126.650452 122.942398,127.431793 122.915909,128.213135 
z"/>
<path fill="#1F387C" opacity="1.000000" stroke="none" 
	d="
M144.079330,67.055840 
	C143.880676,67.337196 143.682037,67.618553 142.844269,67.950165 
	C140.446411,67.657188 138.687653,67.313950 136.986710,66.624268 
	C139.078323,64.523094 141.144470,62.804058 143.134796,61.001343 
	C144.510681,59.755161 145.781891,58.393410 147.234406,56.775314 
	C150.466873,53.571369 153.564774,50.675404 157.025055,47.860268 
	C158.325333,48.151882 159.731094,48.865749 160.128937,48.495770 
	C164.197479,44.712124 168.102325,40.752430 172.052917,36.841919 
	C172.190750,37.951809 172.867477,39.632462 172.386307,40.086746 
	C163.923080,48.077286 155.318466,55.918095 146.061996,63.910385 
	C143.099792,64.245049 142.207657,65.056778 144.079330,67.055840 
z"/>
<path fill="#9D7DDD" opacity="1.000000" stroke="none" 
	d="
M32.046303,160.200211 
	C36.192123,155.810974 40.190369,151.269913 44.515545,147.065170 
	C52.661983,139.145584 60.991112,131.413727 69.265755,123.626625 
	C69.851265,123.075615 70.612526,122.711372 71.994926,122.171005 
	C73.811295,122.724632 74.924812,123.367546 75.739174,123.928352 
	C74.236816,124.157158 72.703293,124.101089 71.884010,124.838524 
	C66.570595,129.621124 61.353146,134.516159 56.265999,139.538208 
	C55.474571,140.319504 55.510578,141.938965 55.006752,143.411591 
	C54.285175,144.162125 53.720802,144.671921 52.784073,145.109741 
	C50.804329,146.015900 49.027416,146.797012 47.620190,148.007782 
	C42.687325,152.252060 37.881817,156.644348 32.779800,160.985489 
	C32.172180,160.848450 32.010399,160.585007 32.046303,160.200211 
z"/>
<path fill="#321066" opacity="1.000000" stroke="none" 
	d="
M31.698826,160.183304 
	C32.010399,160.585007 32.172180,160.848450 33.006714,161.262253 
	C35.693821,160.636978 38.136818,160.079987 40.067364,158.768585 
	C43.543449,156.407364 46.712463,153.594086 50.042297,151.273590 
	C50.509136,151.934158 50.903675,152.392883 51.401375,152.586685 
	C51.555351,152.646637 51.989937,151.986023 52.296047,151.655304 
	C51.766045,151.394821 51.236046,151.134354 50.797653,150.649445 
	C50.889263,150.424988 51.153614,150.018539 51.480476,150.010529 
	C52.897831,150.384857 53.988323,150.767181 55.078819,151.149490 
	C50.310978,156.009537 45.676964,161.011139 40.733078,165.684967 
	C36.758442,169.442490 33.685356,168.649734 28.821230,162.990845 
	C29.644253,162.072083 30.497803,161.119247 31.698826,160.183304 
z"/>
<path fill="#212E7A" opacity="1.000000" stroke="none" 
	d="
M118.095154,73.848396 
	C118.429192,73.939911 118.701591,74.123077 118.978951,74.877022 
	C119.060242,75.530983 119.074921,75.705803 119.082855,76.185211 
	C119.586304,76.998459 120.096497,77.507126 120.788651,78.267754 
	C121.319267,78.717125 121.667923,78.914543 122.057755,79.419907 
	C122.722305,80.162895 123.345673,80.597939 124.019592,81.339180 
	C124.672279,82.095848 125.274422,82.546326 125.959465,83.333679 
	C130.071304,88.008911 134.100250,92.347267 138.093704,97.061188 
	C137.677521,98.305351 137.296829,99.173950 136.623840,99.895554 
	C133.869278,97.532349 131.407028,95.316147 128.764481,92.818222 
	C125.697754,89.491936 122.811333,86.447365 119.872391,83.104538 
	C119.529289,82.549034 119.238708,82.291786 118.967392,82.046539 
	C118.986656,82.058540 118.940788,82.064117 118.929497,81.712791 
	C116.257423,79.251587 113.596642,77.141716 110.957085,75.012283 
	C110.978310,74.992729 110.984604,75.050110 110.891617,74.808739 
	C110.515686,74.383873 110.232758,74.200371 109.975464,74.008514 
	C110.001114,74.000153 109.983017,74.050980 109.890533,73.809662 
	C109.514137,73.387085 109.230225,73.205818 108.971466,73.011429 
	C108.996628,72.998306 108.977196,73.051620 108.885391,72.828049 
	C108.607727,72.320427 108.349457,72.140076 107.897125,71.848457 
	C107.568443,71.357094 107.296021,71.182953 106.961586,70.768173 
	C106.950317,69.969627 106.935669,69.514015 107.292328,69.017044 
	C109.779190,69.993393 111.894745,71.011101 114.109055,72.242752 
	C114.393478,72.726395 114.642227,72.911247 115.079666,73.310051 
	C115.816261,73.704926 116.427254,73.801003 117.304276,73.923958 
	C117.745247,73.916687 117.920204,73.882538 118.095154,73.848396 
z"/>
<path fill="#2F1E67" opacity="1.000000" stroke="none" 
	d="
M89.038193,128.893356 
	C89.005478,130.093582 88.972763,131.293808 88.902695,132.942993 
	C86.463669,131.349945 84.061996,129.307938 81.670006,127.274170 
	C74.376015,133.851654 67.066170,140.443420 59.396278,146.716156 
	C60.945976,143.899582 62.796635,141.354004 64.779922,138.916306 
	C67.475296,135.603363 70.272072,132.372925 73.163040,128.806183 
	C74.644417,127.348534 75.988113,126.191788 77.649445,124.854431 
	C79.657669,124.507645 81.348244,124.341469 83.205437,124.378647 
	C83.707306,124.680511 84.042557,124.779015 84.553169,124.904228 
	C84.728523,124.930946 85.020905,125.131866 85.132042,125.325790 
	C85.442009,125.758713 85.693459,125.910713 86.278267,126.100479 
	C87.385399,127.114616 88.211792,128.003983 89.038193,128.893356 
z"/>
<path fill="#9D7DDD" opacity="1.000000" stroke="none" 
	d="
M34.865540,34.947044 
	C36.851200,31.682947 38.706123,32.490273 40.959377,34.658482 
	C52.586853,45.847107 64.310165,56.936092 75.978958,68.081909 
	C77.035164,69.090775 77.941444,70.256607 78.587296,71.672104 
	C77.838142,71.998688 77.419044,72.002716 76.749557,72.005463 
	C76.332275,72.006470 76.165375,72.008759 75.709015,71.848572 
	C72.000862,68.362541 68.698990,64.906944 65.131943,61.751080 
	C61.248516,58.315304 57.118954,55.157734 53.067223,51.537781 
	C48.998341,47.128704 44.958939,43.060719 40.741211,38.741726 
	C39.797768,38.247646 39.032646,38.004578 38.249954,37.423149 
	C37.858658,35.153126 37.449387,33.285370 34.914619,35.239799 
	C34.914619,35.239799 34.787804,35.037598 34.865540,34.947044 
z"/>
<path fill="#1F387C" opacity="1.000000" stroke="none" 
	d="
M136.916138,100.042549 
	C137.296829,99.173950 137.677521,98.305351 138.359756,97.249046 
	C139.480560,97.734497 140.299805,98.407661 141.253448,99.411797 
	C142.949036,99.455070 144.510223,99.167381 146.071426,98.879684 
	C147.102173,99.503563 148.132919,100.127449 149.163666,100.751328 
	C148.495331,100.180214 147.826981,99.609108 147.158646,99.037994 
	C141.607101,105.732582 136.055542,112.427162 130.087036,119.422325 
	C129.446320,119.809746 129.227188,119.906982 128.665375,119.999435 
	C127.237053,120.297379 126.156021,120.610504 125.200974,120.614967 
	C129.952728,115.094643 134.578476,109.882973 139.627014,104.194992 
	C137.907120,103.984238 136.949554,103.866898 136.154449,103.464188 
	C136.516647,102.133400 136.716400,101.087975 136.916138,100.042549 
z"/>
<path fill="#311A6F" opacity="1.000000" stroke="none" 
	d="
M56.964111,64.495155 
	C58.002174,63.428661 59.057030,62.717888 60.774635,62.117859 
	C61.930874,62.830116 62.424366,63.431622 62.643093,64.062485 
	C62.062687,64.395035 61.757046,64.698235 61.451405,65.001434 
	C61.655689,65.182671 61.859978,65.363899 62.064262,65.545135 
	C62.364246,65.059097 62.664230,64.573067 63.272610,64.206863 
	C66.968224,67.240173 70.355438,70.153648 73.891373,73.329025 
	C74.664116,74.082481 75.288155,74.574036 76.061127,75.417084 
	C76.364517,75.970848 76.518967,76.173119 76.435867,76.694077 
	C76.119530,78.345512 76.040756,79.678253 75.982391,81.012474 
	C76.002800,81.013947 76.008759,80.974319 75.654762,80.899223 
	C74.833221,80.933685 74.365677,81.043251 73.898132,81.152817 
	C68.259056,75.718842 62.619980,70.284859 56.964111,64.495155 
z"/>
<path fill="#83A2F1" opacity="1.000000" stroke="none" 
	d="
M172.065826,162.468323 
	C171.919464,162.863770 171.744247,162.917816 171.105133,162.750854 
	C169.768661,162.347473 168.896057,162.165100 168.023468,161.982727 
	C168.023468,161.982727 167.998779,161.998535 168.011124,161.639450 
	C159.999939,153.397629 151.978958,145.512283 143.917633,137.668411 
	C143.835785,137.588776 143.221954,138.055923 142.856476,138.267807 
	C142.112366,137.891769 141.368240,137.515732 140.302689,136.619507 
	C138.971191,133.438049 137.961121,130.776810 136.951050,128.115570 
	C148.646362,139.452698 160.341675,150.789825 172.065826,162.468323 
z"/>
<path fill="#21306C" opacity="1.000000" stroke="none" 
	d="
M123.049683,128.527893 
	C122.942398,127.431793 122.968887,126.650452 123.342834,125.432800 
	C124.155380,124.941292 124.620453,124.886093 125.397202,124.897346 
	C126.452225,125.331848 127.195587,125.699890 127.960175,126.449997 
	C128.951309,128.213531 129.818451,129.684799 130.923004,130.948578 
	C131.838867,131.996475 133.034485,132.799866 134.165024,133.990143 
	C134.519928,134.485138 134.815964,134.701584 135.124634,134.883392 
	C135.137253,134.848785 135.206024,134.822357 135.206024,134.822357 
	C138.851410,139.235138 142.528381,143.622406 146.126083,148.073730 
	C147.498230,149.771423 148.688660,151.615967 149.931595,153.771988 
	C140.995346,145.714462 132.089401,137.278549 123.049683,128.527893 
z"/>
<path fill="#2D1569" opacity="1.000000" stroke="none" 
	d="
M61.084785,99.018600 
	C61.442711,99.246155 61.800636,99.473709 62.499512,100.159790 
	C63.429329,105.451157 66.642197,108.157036 70.679871,110.248405 
	C70.726509,110.264664 70.824966,110.272606 70.905472,110.481689 
	C71.162666,110.952934 71.406158,111.114365 71.730537,111.201149 
	C71.744606,111.227219 71.752365,111.285950 71.797699,111.567039 
	C72.242722,112.221100 72.642395,112.594070 73.023514,112.983734 
	C73.004959,113.000420 73.035583,112.965569 73.113052,113.207489 
	C73.471161,113.620995 73.751801,113.792587 74.017136,113.979599 
	C74.001839,113.995010 74.034035,113.958908 74.118607,114.266556 
	C74.527832,115.353920 74.852486,116.133636 75.115280,117.211914 
	C74.483711,117.996315 73.914001,118.482162 73.344299,118.968010 
	C67.453880,113.293755 61.530148,107.653023 55.728264,101.889641 
	C55.190590,101.355530 55.427013,100.042152 56.033886,99.015106 
	C58.204113,98.965942 59.644447,98.992271 61.084785,99.018600 
z"/>
<path fill="#311A6F" opacity="1.000000" stroke="none" 
	d="
M73.025360,129.107086 
	C70.272072,132.372925 67.475296,135.603363 64.779922,138.916306 
	C62.796635,141.354004 60.945976,143.899582 59.049034,146.780487 
	C57.961285,148.453125 56.860722,149.742355 55.419491,151.090546 
	C53.988323,150.767181 52.897831,150.384857 51.471073,149.664093 
	C51.808681,147.944351 52.482555,146.563034 53.156425,145.181717 
	C53.720802,144.671921 54.285175,144.162125 55.338226,143.335815 
	C61.559719,138.381912 67.292542,133.744507 73.025360,129.107086 
z"/>
<path fill="#896CD6" opacity="1.000000" stroke="none" 
	d="
M61.227318,98.716034 
	C59.644447,98.992271 58.204113,98.965942 56.338696,98.874153 
	C57.181206,97.165764 58.252075,95.310394 59.753529,93.919998 
	C64.135948,89.861717 68.690308,85.989105 73.605286,82.035477 
	C74.033295,82.027229 74.200455,82.178337 74.193283,82.358772 
	C74.241127,82.799362 74.395287,82.969803 74.648590,83.050514 
	C73.982918,84.577888 73.668159,86.440742 72.587372,87.571259 
	C68.996620,91.327225 65.130424,94.819862 61.227318,98.716034 
z"/>
<path fill="#212E7A" opacity="1.000000" stroke="none" 
	d="
M136.928909,66.970703 
	C138.687653,67.313950 140.446411,67.657188 142.589676,68.022217 
	C138.346024,72.510231 133.717850,76.976440 128.798737,81.712204 
	C128.507812,81.981743 128.163437,81.964424 127.992798,81.632538 
	C127.554138,79.876389 127.286102,78.452126 127.320877,76.870010 
	C128.213455,75.498962 128.803223,74.285774 129.653397,72.890747 
	C132.252167,70.796188 134.590546,68.883446 136.928909,66.970703 
z"/>
<path fill="#8378E5" opacity="1.000000" stroke="none" 
	d="
M98.934235,63.678783 
	C95.865479,65.981133 92.889931,68.425652 89.687988,70.524841 
	C88.126694,71.548424 86.143143,71.927933 84.147682,72.293968 
	C88.431702,67.709717 92.864342,63.370556 97.453430,59.203686 
	C98.332069,58.405891 99.826691,58.286503 101.492004,58.149654 
	C104.827827,62.426144 99.725304,61.811558 98.934235,63.678783 
z"/>
<path fill="#869BEF" opacity="1.000000" stroke="none" 
	d="
M125.150352,72.002609 
	C128.472382,68.152260 131.631104,64.143608 135.164795,60.498470 
	C138.358032,57.204536 141.961090,54.307896 145.687103,51.419643 
	C145.991776,52.058365 145.992767,52.513504 145.957367,53.271465 
	C145.922577,53.980499 145.924210,54.386707 145.654922,55.015167 
	C139.575119,60.490753 133.766235,65.744095 127.655624,71.023209 
	C126.619377,71.366867 125.884865,71.684738 125.150352,72.002609 
z"/>
<path fill="#6A82E4" opacity="1.000000" stroke="none" 
	d="
M134.106171,133.711578 
	C133.034485,132.799866 131.838867,131.996475 130.923004,130.948578 
	C129.818451,129.684799 128.951309,128.213531 128.018997,126.110039 
	C129.369873,124.591232 130.683151,123.794456 131.996414,122.997665 
	C132.266724,123.184814 132.537048,123.371964 132.898865,124.163254 
	C134.290222,125.869247 135.590118,126.971107 136.889999,128.072968 
	C136.889999,128.072968 136.955811,128.039948 136.953430,128.077759 
	C137.961121,130.776810 138.971191,133.438049 140.028015,136.448318 
	C138.672562,136.187393 137.270370,135.577454 135.537094,134.894928 
	C135.206024,134.822357 135.137253,134.848785 135.041245,134.623032 
	C134.665543,134.168716 134.385864,133.940140 134.106171,133.711578 
z"/>
<path fill="#1D4592" opacity="1.000000" stroke="none" 
	d="
M171.991028,36.585472 
	C168.102325,40.752430 164.197479,44.712124 160.128937,48.495770 
	C159.731094,48.865749 158.325333,48.151882 157.158722,47.548378 
	C159.965393,44.142921 163.000763,41.130180 166.313019,38.180214 
	C167.089035,37.811642 167.588165,37.380299 168.019791,36.669876 
	C167.427078,35.859726 166.901886,35.328655 166.363281,34.624912 
	C166.349899,34.452240 166.333252,34.106251 166.457321,33.987389 
	C166.488297,33.587246 166.395187,33.305969 166.261719,32.818878 
	C166.221344,32.613068 166.071930,32.221115 166.071930,32.221115 
	C167.329407,32.603886 168.586884,32.986656 169.580307,33.861977 
	C169.209808,35.089317 169.103363,35.824108 168.951965,36.869164 
	C169.968109,36.324059 170.537842,36.018425 171.107574,35.712788 
	C171.381424,35.918198 171.655289,36.123608 171.991028,36.585472 
z"/>
<path fill="#83A2F1" opacity="1.000000" stroke="none" 
	d="
M166.333252,34.106251 
	C166.333252,34.106251 166.349899,34.452240 166.113647,34.896317 
	C162.369919,38.604416 158.917221,41.930000 155.338226,45.113605 
	C152.299072,47.817020 149.114182,50.356583 145.993774,52.968643 
	C145.992767,52.513504 145.991776,52.058365 145.982529,51.261513 
	C152.447922,44.682541 158.921570,38.445274 165.733582,32.214561 
	C166.071930,32.221115 166.221344,32.613068 166.215057,33.090286 
	C166.250259,33.747089 166.291748,33.926670 166.333252,34.106251 
z"/>
<path fill="#6567D3" opacity="1.000000" stroke="none" 
	d="
M99.211761,63.843590 
	C99.725304,61.811558 104.827827,62.426144 101.859482,58.100845 
	C101.919159,57.034859 102.066223,56.313206 102.245964,55.431175 
	C102.901779,56.233856 103.381119,56.820549 103.941704,58.046688 
	C105.014946,60.286560 105.882133,61.983150 107.025444,63.466999 
	C109.272568,66.383469 111.673187,69.181679 114.010307,72.028816 
	C111.894745,71.011101 109.779190,69.993393 106.959656,68.951447 
	C104.533974,67.639366 102.812263,66.351524 101.090546,65.063675 
	C100.556793,64.711914 100.023041,64.360161 99.211761,63.843590 
z"/>
<path fill="#5C76DF" opacity="1.000000" stroke="none" 
	d="
M128.163437,81.964424 
	C128.163437,81.964424 128.507812,81.981743 128.671753,82.034431 
	C130.329025,83.681297 131.822342,85.275475 133.622375,87.407806 
	C136.405121,90.838730 138.941238,93.684227 141.294693,96.673508 
	C141.662308,97.140434 141.198441,98.261978 141.119049,99.080826 
	C140.299805,98.407661 139.480560,97.734497 138.395248,96.873474 
	C134.100250,92.347267 130.071304,88.008911 126.037926,83.074883 
	C126.061462,82.301170 126.089447,82.123131 126.457611,81.958588 
	C127.253006,81.969521 127.708221,81.966972 128.163437,81.964424 
z"/>
<path fill="#869BEF" opacity="1.000000" stroke="none" 
	d="
M114.109055,72.242752 
	C111.673187,69.181679 109.272568,66.383469 107.025444,63.466999 
	C105.882133,61.983150 105.014946,60.286560 104.064957,58.319641 
	C108.764221,63.011616 113.421471,68.070076 118.086937,73.488464 
	C117.920204,73.882538 117.745247,73.916687 117.112633,73.693993 
	C116.087997,73.295189 115.521027,73.153221 114.954056,73.011253 
	C114.642227,72.911247 114.393478,72.726395 114.109055,72.242752 
z"/>
<path fill="#442E92" opacity="1.000000" stroke="none" 
	d="
M73.248627,119.304016 
	C73.914001,118.482162 74.483711,117.996315 75.359070,117.429062 
	C77.803307,118.561058 79.941895,119.774467 82.353485,121.063782 
	C83.024185,121.513275 83.421867,121.886864 83.826447,122.402138 
	C83.833344,122.543823 83.840111,122.827454 83.830002,123.140594 
	C83.839813,123.661667 83.859726,123.869583 83.668068,124.090256 
	C83.456505,124.103004 83.038826,124.175293 83.038826,124.175293 
	C81.348244,124.341469 79.657669,124.507645 77.373489,124.763489 
	C76.532700,124.572258 76.285507,124.291359 76.038322,124.010452 
	C74.924812,123.367546 73.811295,122.724632 72.305222,122.039352 
	C72.326096,121.211327 72.739525,120.425674 73.248627,119.304016 
z"/>
<path fill="#869BEF" opacity="1.000000" stroke="none" 
	d="
M141.253448,99.411797 
	C141.198441,98.261978 141.662308,97.140434 141.294693,96.673508 
	C138.941238,93.684227 136.405121,90.838730 133.915680,87.597565 
	C137.867355,90.924789 141.832428,94.600410 145.934479,98.577858 
	C144.510223,99.167381 142.949036,99.455070 141.253448,99.411797 
z"/>
<path fill="#869BEF" opacity="1.000000" stroke="none" 
	d="
M131.980255,122.739960 
	C130.683151,123.794456 129.369873,124.591232 127.997772,125.727982 
	C127.195587,125.699890 126.452225,125.331848 125.373047,124.595284 
	C125.022758,123.822609 125.008278,123.418457 125.007263,122.665611 
	C125.038811,121.852493 125.056892,121.388062 125.074982,120.923630 
	C126.156021,120.610504 127.237053,120.297379 128.795776,120.278961 
	C130.126785,121.043312 130.980118,121.512962 131.833435,121.982620 
	C131.876999,122.149170 131.920547,122.315712 131.980255,122.739960 
z"/>
<path fill="#21306C" opacity="1.000000" stroke="none" 
	d="
M149.990295,154.406891 
	C154.272324,154.011795 156.022110,157.326019 157.933380,160.803986 
	C155.338638,159.012421 152.735275,156.862549 149.990295,154.406891 
z"/>
<path fill="#1D4592" opacity="1.000000" stroke="none" 
	d="
M120.606689,78.015793 
	C120.096497,77.507126 119.586304,76.998459 119.434906,76.227829 
	C120.738686,75.426231 121.683670,74.886597 122.915710,74.147797 
	C123.488342,73.588470 123.773911,73.228317 124.059486,72.868164 
	C124.059486,72.868164 124.494026,72.948799 124.642677,72.990845 
	C124.791328,73.032883 124.865311,73.211060 124.970612,73.537148 
	C124.718674,74.916992 124.361435,75.970741 123.631866,77.015427 
	C122.375252,77.342827 121.490967,77.679306 120.606689,78.015793 
z"/>
<path fill="#6567D3" opacity="1.000000" stroke="none" 
	d="
M76.673424,76.375381 
	C76.518967,76.173119 76.364517,75.970848 76.332169,75.205826 
	C76.636169,73.764297 76.818054,72.885529 76.999939,72.006752 
	C77.419044,72.002716 77.838142,71.998688 78.570625,72.019791 
	C78.938454,72.815193 78.992912,73.585457 79.091805,74.741829 
	C79.149742,75.547958 79.163246,75.967987 78.724030,76.665375 
	C77.748283,76.774231 77.225266,76.605736 76.698074,76.425003 
	C76.693909,76.412773 76.673424,76.375381 76.673424,76.375381 
z"/>
<path fill="#83A2F1" opacity="1.000000" stroke="none" 
	d="
M136.811829,127.761276 
	C135.590118,126.971107 134.290222,125.869247 132.999237,124.394608 
	C134.249969,125.164406 135.491806,126.306992 136.811829,127.761276 
z"/>
<path fill="#212E7A" opacity="1.000000" stroke="none" 
	d="
M144.386063,66.938354 
	C142.207657,65.056778 143.099792,64.245049 145.744751,64.036316 
	C145.637619,64.969093 145.165207,65.894981 144.386063,66.938354 
z"/>
<path fill="#869BEF" opacity="1.000000" stroke="none" 
	d="
M122.628654,74.346954 
	C121.683670,74.886597 120.738686,75.426231 119.441650,75.923248 
	C119.074921,75.705803 119.060242,75.530983 119.096237,75.097588 
	C119.438683,74.810707 119.653358,74.667122 120.231171,74.308258 
	C121.323807,74.254478 121.976227,74.300720 122.628654,74.346954 
z"/>
<path fill="#21306C" opacity="1.000000" stroke="none" 
	d="
M122.915710,74.147789 
	C121.976227,74.300720 121.323807,74.254478 120.348007,74.144958 
	C121.268677,73.474899 122.512703,72.868118 123.908112,72.564743 
	C123.773911,73.228317 123.488342,73.588470 122.915710,74.147789 
z"/>
<path fill="#7588E3" opacity="1.000000" stroke="none" 
	d="
M125.075073,72.223358 
	C125.884865,71.684738 126.619377,71.366867 127.557472,71.289459 
	C127.457253,72.009865 127.153458,72.489799 126.516663,72.978821 
	C125.744209,73.062294 125.304764,73.136681 124.865311,73.211060 
	C124.865311,73.211060 124.791328,73.032883 124.862610,72.969391 
	C124.933884,72.905891 124.999794,72.444107 125.075073,72.223358 
z"/>
<path fill="#83A2F1" opacity="1.000000" stroke="none" 
	d="
M131.719604,121.624382 
	C130.980118,121.512962 130.126785,121.043312 129.143066,120.294136 
	C129.227188,119.906982 129.446320,119.809746 129.845886,119.686523 
	C130.549713,120.188805 131.077728,120.727478 131.719604,121.624382 
z"/>
<path fill="#83A2F1" opacity="1.000000" stroke="none" 
	d="
M171.013763,35.469788 
	C170.537842,36.018425 169.968109,36.324059 168.951965,36.869164 
	C169.103363,35.824108 169.209808,35.089317 169.597244,34.211334 
	C170.225464,34.454361 170.572708,34.840576 171.013763,35.469788 
z"/>
<path fill="#896CD6" opacity="1.000000" stroke="none" 
	d="
M73.902100,81.334045 
	C74.365677,81.043251 74.833221,80.933685 75.537140,81.163307 
	C75.249161,81.727768 74.724808,81.953056 74.200455,82.178337 
	C74.200455,82.178337 74.033295,82.027229 73.949814,81.951424 
	C73.866341,81.875618 73.906059,81.515266 73.902100,81.334045 
z"/>
<path fill="#156291" opacity="1.000000" stroke="none" 
	d="
M65.161499,99.994400 
	C67.586678,97.773293 70.011848,95.552185 72.730118,93.614235 
	C71.183304,100.965508 72.436485,105.519882 77.063553,108.351479 
	C77.453819,109.416473 77.703201,110.199013 77.607849,110.924286 
	C75.190514,109.867195 73.117920,108.867363 70.880623,107.575317 
	C68.864449,104.853523 67.012978,102.423965 65.161499,99.994400 
z"/>
<path fill="#0985A9" opacity="1.000000" stroke="none" 
	d="
M76.922684,108.069023 
	C72.436485,105.519882 71.183304,100.965508 73.043701,93.502869 
	C73.257782,92.838470 73.451363,92.568604 74.172928,92.122726 
	C75.148857,91.320107 75.596802,90.693481 76.044754,90.066856 
	C76.539375,89.553757 77.034004,89.040657 77.799393,88.680840 
	C78.370132,89.221886 78.670097,89.609650 78.970642,90.374908 
	C78.691635,93.170731 78.412048,95.589066 78.099167,98.422867 
	C78.079346,100.227463 78.092834,101.616600 77.769150,103.052383 
	C77.262215,104.755692 77.092445,106.412354 76.922684,108.069023 
z"/>
<path fill="#07709C" opacity="1.000000" stroke="none" 
	d="
M106.958214,71.111099 
	C107.296021,71.182953 107.568443,71.357094 107.980423,72.076271 
	C108.373650,72.808975 108.637596,72.986504 108.977196,73.051620 
	C108.977196,73.051620 108.996628,72.998306 109.060097,73.254242 
	C109.410049,73.690453 109.696533,73.870712 109.983017,74.050980 
	C109.983017,74.050980 110.001114,74.000153 110.075500,74.244568 
	C110.428123,74.676025 110.706367,74.863068 110.984604,75.050110 
	C110.984604,75.050110 110.978310,74.992729 110.941711,75.273376 
	C110.874969,75.725815 110.844818,75.897614 110.402649,76.044647 
	C108.859329,75.795410 107.725571,75.368279 106.597160,75.381958 
	C102.014023,75.437469 97.122566,73.097031 92.679001,77.017876 
	C91.925293,77.042747 91.495041,77.060768 90.803391,77.054733 
	C90.367455,77.017815 90.192924,77.004951 90.018387,76.992081 
	C91.851204,75.106895 93.684029,73.221718 96.242218,71.185204 
	C100.297798,71.059616 103.628006,71.085358 106.958214,71.111099 
z"/>
<path fill="#0B8AAB" opacity="1.000000" stroke="none" 
	d="
M89.673935,77.051758 
	C90.192924,77.004951 90.367455,77.017815 90.733711,77.376785 
	C90.602753,79.154327 90.280075,80.585777 89.899734,82.363411 
	C87.549232,84.126503 85.256386,85.543396 82.680832,87.101135 
	C81.255440,88.160461 80.112755,89.078934 78.970062,89.997414 
	C78.670097,89.609650 78.370132,89.221886 78.046852,88.584106 
	C81.792191,84.593201 85.560829,80.852318 89.673935,77.051758 
z"/>
<path fill="#075D87" opacity="1.000000" stroke="none" 
	d="
M106.961586,70.768173 
	C103.628006,71.085358 100.297798,71.059616 96.541695,71.047508 
	C97.665337,69.251587 99.214867,67.442032 100.927475,65.348076 
	C102.812263,66.351524 104.533974,67.639366 106.588356,68.992805 
	C106.935669,69.514015 106.950317,69.969627 106.961586,70.768173 
z"/>
<path fill="#633FC5" opacity="1.000000" stroke="none" 
	d="
M64.713562,99.922554 
	C67.012978,102.423965 68.864449,104.853523 70.842163,107.975769 
	C70.856682,109.189674 70.744965,109.710915 70.633240,110.232147 
	C66.642197,108.157036 63.429329,105.451157 62.656418,100.306213 
	C63.070122,99.946304 63.667873,99.898506 64.713562,99.922554 
z"/>
<path fill="#442E92" opacity="1.000000" stroke="none" 
	d="
M74.193283,82.358772 
	C74.724808,81.953056 75.249161,81.727768 75.891136,81.238403 
	C76.008759,80.974319 76.002800,81.013947 76.326843,80.801804 
	C76.667999,79.205513 76.685120,77.821381 76.702240,76.437241 
	C77.225266,76.605736 77.748283,76.774231 78.686142,76.979881 
	C81.304802,80.097107 80.485802,81.435272 75.044250,83.024673 
	C74.395287,82.969803 74.241127,82.799362 74.193283,82.358772 
z"/>
<path fill="#156291" opacity="1.000000" stroke="none" 
	d="
M75.765747,90.160019 
	C75.596802,90.693481 75.148857,91.320107 74.394325,92.002213 
	C74.554070,91.456192 75.020409,90.854691 75.765747,90.160019 
z"/>
<path fill="#4574DF" opacity="1.000000" stroke="none" 
	d="
M142.887756,138.610229 
	C143.221954,138.055923 143.835785,137.588776 143.917633,137.668411 
	C151.978958,145.512283 159.999939,153.397629 168.021118,161.627716 
	C167.359604,161.945572 166.449722,162.188400 166.078232,161.846420 
	C158.513855,154.882828 151.000320,147.863708 143.524750,140.804703 
	C143.109848,140.412918 143.111359,139.580154 142.887756,138.610229 
z"/>
<path fill="#4574DF" opacity="1.000000" stroke="none" 
	d="
M168.002548,162.320709 
	C168.896057,162.165100 169.768661,162.347473 170.835938,162.807312 
	C170.014297,162.942764 168.997955,162.800720 168.002548,162.320709 
z"/>
<path fill="#633FC5" opacity="1.000000" stroke="none" 
	d="
M62.917858,64.033127 
	C62.424366,63.431622 61.930874,62.830116 61.149811,62.125694 
	C58.801079,60.159382 56.704952,58.332649 54.694756,56.415798 
	C53.802479,55.564953 53.083755,54.532097 52.367882,53.174576 
	C52.665237,52.471157 52.880966,52.175014 53.096699,51.878876 
	C57.118954,55.157734 61.248516,58.315304 65.131943,61.751080 
	C68.698990,64.906944 72.000862,68.362541 75.525253,72.120338 
	C75.001511,72.725441 74.372078,72.896278 73.742653,73.067123 
	C70.355438,70.153648 66.968224,67.240173 63.290676,64.167679 
	C63.000347,64.008652 62.917858,64.033127 62.917858,64.033127 
z"/>
<path fill="#672DBE" opacity="1.000000" stroke="none" 
	d="
M53.067223,51.537781 
	C52.880966,52.175014 52.665237,52.471157 52.204098,52.894390 
	C48.367424,49.556553 44.776161,46.091625 41.047291,41.955788 
	C40.912968,40.520832 40.916252,39.756786 40.919533,38.992737 
	C44.958939,43.060719 48.998341,47.128704 53.067223,51.537781 
z"/>
<path fill="#672DBE" opacity="1.000000" stroke="none" 
	d="
M34.932865,35.414482 
	C37.449387,33.285370 37.858658,35.153126 38.008671,37.602581 
	C37.526958,38.408199 37.268955,38.696033 37.010956,38.983864 
	C36.476879,38.699825 35.942799,38.415791 35.174301,37.662666 
	C34.948437,36.775768 34.956997,36.357952 34.965553,35.940136 
	C34.965553,35.940136 34.951111,35.589165 34.932865,35.414482 
z"/>
<path fill="#442E92" opacity="1.000000" stroke="none" 
	d="
M37.290627,39.118847 
	C37.268955,38.696033 37.526958,38.408199 38.026237,37.940941 
	C39.032646,38.004578 39.797768,38.247646 40.741211,38.741726 
	C40.916252,39.756786 40.912968,40.520832 40.875206,41.665379 
	C39.750584,41.115192 38.660442,40.184513 37.290627,39.118847 
z"/>
<path fill="#896CD6" opacity="1.000000" stroke="none" 
	d="
M34.708130,36.021324 
	C34.956997,36.357952 34.948437,36.775768 34.908829,37.504951 
	C34.477596,37.721436 34.077415,37.626560 33.677235,37.531685 
	C33.935059,37.055290 34.192883,36.578899 34.708130,36.021324 
z"/>
<path fill="#7D7AD6" opacity="1.000000" stroke="none" 
	d="
M70.679871,110.248405 
	C70.744965,109.710915 70.856682,109.189674 71.006859,108.267990 
	C73.117920,108.867363 75.190514,109.867195 77.743980,111.243973 
	C80.459770,113.762917 82.694702,115.904900 85.070480,118.349838 
	C88.072922,121.427864 90.934517,124.202927 93.965714,127.278214 
	C96.075470,130.348343 98.015625,133.118240 99.955788,135.888138 
	C98.626373,135.676895 96.972916,135.889709 96.031723,135.170471 
	C93.725983,133.408432 91.748955,131.216248 89.338921,129.045258 
	C88.211792,128.003983 87.385399,127.114616 86.193588,125.882004 
	C85.633858,125.254799 85.364777,125.119171 85.020905,125.131866 
	C85.020905,125.131866 84.728523,124.930946 84.455078,124.687325 
	C84.181641,124.443703 83.879631,124.077499 83.879631,124.077499 
	C83.859726,123.869583 83.839813,123.661667 84.024887,123.126450 
	C84.093102,122.619591 83.956329,122.440025 83.819550,122.260452 
	C83.421867,121.886864 83.024185,121.513275 82.296890,120.718559 
	C79.322861,118.184593 76.678444,116.071754 74.034035,113.958908 
	C74.034035,113.958908 74.001839,113.995010 73.919342,113.752823 
	C73.641327,113.223747 73.374237,113.042061 73.035583,112.965569 
	C73.035583,112.965569 73.004959,113.000420 73.004837,112.674965 
	C72.587273,111.994987 72.169823,111.640465 71.752365,111.285950 
	C71.752365,111.285950 71.744606,111.227219 71.730583,110.938507 
	C71.419365,110.524055 71.122169,110.398331 70.824966,110.272606 
	C70.824966,110.272606 70.726509,110.264664 70.679871,110.248405 
z"/>
<path fill="#7588E3" opacity="1.000000" stroke="none" 
	d="
M120.895981,124.535645 
	C120.708382,124.604393 120.520775,124.673149 119.683960,124.840919 
	C116.686577,126.956833 114.338394,128.973724 111.990204,130.990601 
	C111.990204,130.990601 112.000000,131.000000 111.684776,131.006424 
	C110.978416,131.413620 110.587280,131.814392 110.196152,132.215164 
	C110.196152,132.215164 110.002167,132.033401 109.807022,132.169220 
	C109.388771,132.839935 109.165657,133.374817 108.942551,133.909714 
	C108.942551,133.909714 108.987732,133.991394 108.559799,133.965240 
	C107.090775,133.944077 106.049690,133.949051 105.012589,133.608368 
	C106.680740,131.174011 108.344887,129.085342 110.002899,126.998230 
	C109.996758,126.999802 109.993568,127.011627 110.227493,126.907303 
	C110.663177,126.531822 110.864944,126.260666 111.362480,125.839127 
	C114.127548,122.807411 116.596840,119.926086 119.339272,116.926254 
	C120.121819,116.211624 120.631241,115.615509 121.474426,115.000496 
	C122.873016,114.323029 123.937859,113.664467 125.297852,112.974762 
	C125.983772,112.905464 126.374527,112.867294 126.813400,113.194748 
	C125.912903,117.015198 120.343269,118.026360 121.735733,122.981041 
	C121.308647,123.596001 121.102318,124.065826 120.895981,124.535645 
z"/>
<path fill="#156291" opacity="1.000000" stroke="none" 
	d="
M110.009033,126.996666 
	C108.344887,129.085342 106.680740,131.174011 104.750000,133.740662 
	C104.000061,134.818619 103.516708,135.418610 103.033348,136.018585 
	C102.194954,136.065948 101.356560,136.113312 100.236977,136.024399 
	C98.015625,133.118240 96.075470,130.348343 94.423843,127.277466 
	C99.811256,126.983215 104.910149,126.989937 110.009033,126.996666 
z"/>
<path fill="#6567D3" opacity="1.000000" stroke="none" 
	d="
M112.312866,130.881714 
	C114.338394,128.973724 116.686577,126.956833 119.393219,124.913681 
	C117.379631,126.849213 115.007576,128.811005 112.312866,130.881714 
z"/>
<path fill="#6567D3" opacity="1.000000" stroke="none" 
	d="
M103.341530,136.158752 
	C103.516708,135.418610 104.000061,134.818619 104.746010,134.086334 
	C106.049690,133.949051 107.090775,133.944077 108.520706,133.939758 
	C107.156258,134.726578 105.402985,135.512741 103.341530,136.158752 
z"/>
<path fill="#6567D3" opacity="1.000000" stroke="none" 
	d="
M121.234985,124.664383 
	C121.102318,124.065826 121.308647,123.596001 122.114250,123.031555 
	C123.473610,122.962723 124.233704,122.988510 124.993797,123.014297 
	C125.008278,123.418457 125.022758,123.822609 125.061386,124.528831 
	C124.620453,124.886093 124.155380,124.941292 123.341568,125.041664 
	C122.519890,124.988937 122.046944,124.891029 121.234985,124.664383 
z"/>
<path fill="#6567D3" opacity="1.000000" stroke="none" 
	d="
M109.230682,133.830765 
	C109.165657,133.374817 109.388771,132.839935 109.912338,132.250137 
	C109.981468,132.714096 109.750145,133.232956 109.230682,133.830765 
z"/>
<path fill="#6567D3" opacity="1.000000" stroke="none" 
	d="
M110.494843,132.208282 
	C110.587280,131.814392 110.978416,131.413620 111.680161,131.001434 
	C111.591698,131.393829 111.192619,131.797623 110.494843,132.208282 
z"/>
<path fill="#4574DF" opacity="1.000000" stroke="none" 
	d="
M145.957367,53.271469 
	C149.114182,50.356583 152.299072,47.817020 155.338226,45.113605 
	C158.917221,41.930000 162.369919,38.604416 166.127029,35.068989 
	C166.901886,35.328655 167.427078,35.859726 167.705688,36.723534 
	C166.984772,37.409992 166.510452,37.763718 166.036133,38.117439 
	C163.000763,41.130180 159.965393,44.142921 156.796356,47.467552 
	C153.564774,50.675404 150.466873,53.571369 146.960876,56.574989 
	C146.343796,56.052742 146.134811,55.422829 145.925842,54.792915 
	C145.924210,54.386707 145.922577,53.980499 145.957367,53.271469 
z"/>
<path fill="#4261D4" opacity="1.000000" stroke="none" 
	d="
M145.654938,55.015167 
	C146.134811,55.422829 146.343796,56.052742 146.826324,56.882973 
	C145.781891,58.393410 144.510681,59.755161 143.134796,61.001343 
	C141.144470,62.804058 139.078323,64.523094 136.986710,66.624268 
	C134.590546,68.883446 132.252167,70.796188 129.229248,72.855530 
	C127.979675,72.991341 127.414665,72.980537 126.849663,72.969742 
	C127.153458,72.489799 127.457253,72.009865 127.859207,71.263680 
	C133.766235,65.744095 139.575119,60.490753 145.654938,55.015167 
z"/>
<path fill="#633FC5" opacity="1.000000" stroke="none" 
	d="
M75.739174,123.928352 
	C76.285507,124.291359 76.532700,124.572258 77.055847,124.944092 
	C75.988113,126.191788 74.644417,127.348534 73.163040,128.806183 
	C67.292542,133.744507 61.559719,138.381912 55.495430,143.095078 
	C55.510578,141.938965 55.474571,140.319504 56.265999,139.538208 
	C61.353146,134.516159 66.570595,129.621124 71.884010,124.838524 
	C72.703293,124.101089 74.236816,124.157158 75.739174,123.928352 
z"/>
<path fill="#672DBE" opacity="1.000000" stroke="none" 
	d="
M52.784073,145.109741 
	C52.482555,146.563034 51.808681,147.944351 51.144211,149.672104 
	C51.153614,150.018539 50.889263,150.424988 50.622719,150.658722 
	C50.356174,150.892471 50.009750,150.969650 50.009750,150.969650 
	C46.712463,153.594086 43.543449,156.407364 40.067364,158.768585 
	C38.136818,160.079987 35.693821,160.636978 33.254871,161.257217 
	C37.881817,156.644348 42.687325,152.252060 47.620190,148.007782 
	C49.027416,146.797012 50.804329,146.015900 52.784073,145.109741 
z"/>
<path fill="#311A6F" opacity="1.000000" stroke="none" 
	d="
M50.042297,151.273590 
	C50.009750,150.969650 50.356174,150.892471 50.531113,150.883179 
	C51.236046,151.134354 51.766045,151.394821 52.296047,151.655304 
	C51.989937,151.986023 51.555351,152.646637 51.401375,152.586685 
	C50.903675,152.392883 50.509136,151.934158 50.042297,151.273590 
z"/>
<path fill="#116598" opacity="1.000000" stroke="none" 
	d="
M126.765282,112.829124 
	C126.374527,112.867294 125.983772,112.905464 125.279831,112.956177 
	C124.966637,112.968712 124.929779,112.932411 124.958618,112.557739 
	C125.680603,109.816017 126.373764,107.448967 127.441154,104.982216 
	C128.191849,100.954987 128.568314,97.027466 128.944778,93.099945 
	C131.407028,95.316147 133.869278,97.532349 136.623840,99.895554 
	C136.716400,101.087975 136.516647,102.133400 135.953278,103.586853 
	C135.290421,104.123810 135.053940,104.326096 134.570587,104.760254 
	C132.479202,106.908653 130.697433,108.898537 128.947144,110.929001 
	C128.978607,110.969566 128.891647,110.914970 128.565903,110.918259 
	C127.798851,111.577309 127.357544,112.233070 126.882881,112.862823 
	C126.849525,112.836823 126.765282,112.829124 126.765282,112.829124 
z"/>
<path fill="#0B8AAB" opacity="1.000000" stroke="none" 
	d="
M128.764481,92.818222 
	C128.568314,97.027466 128.191849,100.954987 127.417526,104.597801 
	C126.349777,103.208672 125.679886,102.104248 125.009895,100.666199 
	C125.002724,99.887794 124.995659,99.443016 125.265694,98.763931 
	C125.898293,95.297234 126.027725,92.169479 121.806503,90.682510 
	C119.042183,87.307358 116.506058,84.199318 114.339813,81.043503 
	C116.120064,81.351860 117.530426,81.707985 118.940788,82.064117 
	C118.940788,82.064117 118.986656,82.058540 119.008331,82.341995 
	C119.328316,82.884560 119.626617,83.143677 119.924911,83.402794 
	C122.811333,86.447365 125.697754,89.491936 128.764481,92.818222 
z"/>
<path fill="#0B2C5A" opacity="1.000000" stroke="none" 
	d="
M118.929497,81.712791 
	C117.530426,81.707985 116.120064,81.351860 114.074234,80.903992 
	C112.669342,80.186241 111.899910,79.560226 111.084152,78.576538 
	C110.963440,77.502365 110.889061,76.785889 110.814674,76.069405 
	C110.844818,75.897614 110.874969,75.725815 110.920486,75.292931 
	C113.596642,77.141716 116.257423,79.251587 118.929497,81.712791 
z"/>
<path fill="#1D3A81" opacity="1.000000" stroke="none" 
	d="
M123.969040,81.032982 
	C123.345673,80.597939 122.722305,80.162895 122.197067,79.155594 
	C122.840630,78.375061 123.386047,78.166786 124.233955,77.976067 
	C124.938225,78.005676 125.340019,78.017738 125.771278,78.356766 
	C125.698311,79.104935 125.595871,79.526131 125.260376,79.993988 
	C124.693779,80.355888 124.360237,80.671135 124.011269,80.996460 
	C123.995834,81.006538 123.969040,81.032982 123.969040,81.032982 
z"/>
<path fill="#6A82E4" opacity="1.000000" stroke="none" 
	d="
M123.931473,77.958511 
	C123.386047,78.166786 122.840630,78.375061 122.155891,78.847641 
	C121.667923,78.914543 121.319267,78.717125 120.788651,78.267746 
	C121.490967,77.679306 122.375252,77.342827 123.631241,76.997192 
	C124.002937,76.988037 123.967613,76.983025 123.991684,77.228218 
	C124.015747,77.473412 123.931473,77.958511 123.931473,77.958511 
z"/>
<path fill="#1D3A81" opacity="1.000000" stroke="none" 
	d="
M126.117424,81.945091 
	C126.089447,82.123131 126.061462,82.301170 125.955025,82.738007 
	C125.274422,82.546326 124.672279,82.095848 124.019592,81.339180 
	C123.969040,81.032982 123.995834,81.006538 124.250397,81.103027 
	C124.951515,81.470284 125.398071,81.741058 125.912308,81.993042 
	C125.979996,81.974251 126.117424,81.945091 126.117424,81.945091 
z"/>
<path fill="#6567D3" opacity="1.000000" stroke="none" 
	d="
M115.079666,73.310051 
	C115.521027,73.153221 116.087997,73.295189 116.846603,73.667122 
	C116.427254,73.801003 115.816261,73.704926 115.079666,73.310051 
z"/>
<path fill="#0B2C5A" opacity="1.000000" stroke="none" 
	d="
M108.885391,72.828049 
	C108.637596,72.986504 108.373650,72.808975 108.102066,72.291214 
	C108.349457,72.140076 108.607727,72.320427 108.885391,72.828049 
z"/>
<path fill="#0B2C5A" opacity="1.000000" stroke="none" 
	d="
M109.890533,73.809662 
	C109.696533,73.870712 109.410049,73.690453 109.034943,73.267365 
	C109.230225,73.205818 109.514137,73.387085 109.890533,73.809662 
z"/>
<path fill="#0B2C5A" opacity="1.000000" stroke="none" 
	d="
M110.891617,74.808739 
	C110.706367,74.863068 110.428123,74.676025 110.049850,74.252930 
	C110.232758,74.200371 110.515686,74.383873 110.891617,74.808739 
z"/>
<path fill="#0B2C5A" opacity="1.000000" stroke="none" 
	d="
M119.872391,83.104538 
	C119.626617,83.143677 119.328316,82.884560 118.989075,82.330002 
	C119.238708,82.291786 119.529289,82.549034 119.872391,83.104538 
z"/>
<path fill="#24256F" opacity="1.000000" stroke="none" 
	d="
M85.132042,125.325790 
	C85.364777,125.119171 85.633858,125.254799 85.912842,125.757248 
	C85.693459,125.910713 85.442009,125.758713 85.132042,125.325790 
z"/>
<path fill="#24256F" opacity="1.000000" stroke="none" 
	d="
M83.668068,124.090256 
	C83.879631,124.077499 84.181641,124.443703 84.279724,124.660606 
	C84.042557,124.779015 83.707306,124.680511 83.205437,124.378647 
	C83.038826,124.175293 83.456505,124.103004 83.668068,124.090256 
z"/>
<path fill="#896CD6" opacity="1.000000" stroke="none" 
	d="
M73.891373,73.329025 
	C74.372078,72.896278 75.001511,72.725441 75.814697,72.282822 
	C76.165375,72.008759 76.332275,72.006470 76.749565,72.005463 
	C76.818054,72.885529 76.636169,73.764297 76.183235,74.854340 
	C75.288155,74.574036 74.664116,74.082481 73.891373,73.329025 
z"/>
<path fill="#6A82E4" opacity="1.000000" stroke="none" 
	d="
M134.880203,104.601746 
	C135.053940,104.326096 135.290421,104.123810 135.790817,103.872223 
	C136.949554,103.866898 137.907120,103.984238 139.627014,104.194992 
	C134.578476,109.882973 129.952728,115.094643 125.200974,120.614975 
	C125.056892,121.388062 125.038811,121.852493 125.007263,122.665611 
	C124.233704,122.988510 123.473610,122.962723 122.334999,122.886414 
	C120.343269,118.026360 125.912903,117.015198 126.813400,113.194748 
	C126.765282,112.829124 126.849525,112.836823 127.219193,112.862732 
	C128.023117,112.230751 128.457382,111.572861 128.891647,110.914970 
	C128.891647,110.914970 128.978607,110.969566 129.302490,110.939903 
	C131.377640,108.807404 133.128922,106.704575 134.880203,104.601746 
z"/>
<path fill="#896CD6" opacity="1.000000" stroke="none" 
	d="
M76.698074,76.425003 
	C76.685120,77.821381 76.667999,79.205513 76.306435,80.800323 
	C76.040756,79.678253 76.119530,78.345512 76.435867,76.694077 
	C76.673424,76.375381 76.693909,76.412773 76.698074,76.425003 
z"/>
<path fill="#34146A" opacity="1.000000" stroke="none" 
	d="
M62.982281,64.047836 
	C62.664230,64.573067 62.364246,65.059097 62.064262,65.545135 
	C61.859978,65.363899 61.655689,65.182671 61.451405,65.001434 
	C61.757046,64.698235 62.062687,64.395035 62.643093,64.062485 
	C62.917858,64.033127 63.000347,64.008652 62.982281,64.047836 
z"/>
<path fill="#1D3A81" opacity="1.000000" stroke="none" 
	d="
M134.165024,133.990143 
	C134.385864,133.940140 134.665543,134.168716 135.028625,134.657654 
	C134.815964,134.701584 134.519928,134.485138 134.165024,133.990143 
z"/>
<path fill="#633FC5" opacity="1.000000" stroke="none" 
	d="
M74.118607,114.266556 
	C76.678444,116.071754 79.322861,118.184593 82.023880,120.642654 
	C79.941895,119.774467 77.803307,118.561058 75.420929,117.130508 
	C74.852486,116.133636 74.527832,115.353920 74.118607,114.266556 
z"/>
<path fill="#633FC5" opacity="1.000000" stroke="none" 
	d="
M71.797699,111.567039 
	C72.169823,111.640465 72.587273,111.994987 73.023392,112.658279 
	C72.642395,112.594070 72.242722,112.221100 71.797699,111.567039 
z"/>
<path fill="#633FC5" opacity="1.000000" stroke="none" 
	d="
M73.113052,113.207489 
	C73.374237,113.042061 73.641327,113.223747 73.934647,113.737404 
	C73.751801,113.792587 73.471161,113.620995 73.113052,113.207489 
z"/>
<path fill="#633FC5" opacity="1.000000" stroke="none" 
	d="
M70.905472,110.481689 
	C71.122169,110.398331 71.419365,110.524055 71.716515,110.912430 
	C71.406158,111.114365 71.162666,110.952934 70.905472,110.481689 
z"/>
<path fill="#5C76DF" opacity="1.000000" stroke="none" 
	d="
M126.516663,72.978828 
	C127.414665,72.980537 127.979675,72.991341 128.968842,73.037361 
	C128.803223,74.285774 128.213455,75.498962 127.060890,76.869873 
	C126.324821,77.027573 126.151558,77.027557 125.642761,77.030106 
	C124.860695,77.016113 124.414154,76.999565 123.967613,76.983017 
	C123.967613,76.983025 124.002937,76.988037 124.003571,77.006271 
	C124.361435,75.970741 124.718674,74.916992 124.970612,73.537155 
	C125.304764,73.136681 125.744209,73.062294 126.516663,72.978828 
z"/>
<path fill="#7588E3" opacity="1.000000" stroke="none" 
	d="
M125.978287,77.027542 
	C126.151558,77.027557 126.324821,77.027573 126.758087,77.027725 
	C127.286102,78.452126 127.554138,79.876389 127.992798,81.632538 
	C127.708221,81.966972 127.253006,81.969521 126.457611,81.958588 
	C126.117424,81.945091 125.979996,81.974251 125.915390,81.641151 
	C125.731674,80.854485 125.612556,80.400909 125.493439,79.947334 
	C125.595871,79.526131 125.698311,79.104935 125.852173,78.111145 
	C125.928490,77.368217 125.953392,77.197884 125.978287,77.027542 
z"/>
<path fill="#83A2F1" opacity="1.000000" stroke="none" 
	d="
M166.313019,38.180214 
	C166.510452,37.763718 166.984772,37.409992 167.773193,37.002609 
	C167.588165,37.380299 167.089035,37.811642 166.313019,38.180214 
z"/>
<path fill="#4261D4" opacity="1.000000" stroke="none" 
	d="
M166.457321,33.987389 
	C166.291748,33.926670 166.250259,33.747089 166.255432,33.296101 
	C166.395187,33.305969 166.488297,33.587246 166.457321,33.987389 
z"/>
<path fill="#633FC5" opacity="1.000000" stroke="none" 
	d="
M83.826447,122.402138 
	C83.956329,122.440025 84.093102,122.619591 84.034996,122.813309 
	C83.840111,122.827454 83.833344,122.543823 83.826447,122.402138 
z"/>
<path fill="#07A5C0" opacity="1.000000" stroke="none" 
	d="
M84.929626,118.046890 
	C82.694702,115.904900 80.459770,113.762917 78.088715,111.301239 
	C77.703201,110.199013 77.453819,109.416473 77.063553,108.351479 
	C77.092445,106.412354 77.262215,104.755692 78.135284,103.057228 
	C79.526054,103.900894 80.966866,105.015205 80.778687,105.634666 
	C79.560844,109.643723 81.818054,111.066139 85.003876,112.351974 
	C86.007500,114.134415 87.005081,115.567055 87.790565,117.265488 
	C86.695518,117.703156 85.812569,117.875023 84.929626,118.046890 
z"/>
<path fill="#08AEC6" opacity="1.000000" stroke="none" 
	d="
M84.997826,112.002182 
	C81.818054,111.066139 79.560844,109.643723 80.778687,105.634666 
	C80.966866,105.015205 79.526054,103.900894 78.472458,103.010590 
	C78.092834,101.616600 78.079346,100.227463 78.370163,98.393433 
	C81.579865,95.931541 79.669403,90.089882 84.996773,89.996887 
	C85.000969,90.000771 85.008514,90.006363 85.108521,90.278839 
	C85.468040,92.026741 85.727554,93.502182 85.671913,94.991196 
	C84.936371,95.012444 84.515984,95.020126 83.797012,95.141830 
	C83.539307,98.355698 83.559319,101.456352 83.679085,104.553146 
	C83.685463,104.718239 84.533134,104.850807 84.989754,105.250839 
	C84.992714,105.671349 84.995094,105.839546 84.998260,106.435272 
	C85.000061,108.574265 85.001060,110.285721 85.001030,111.998589 
	C85.000000,112.000000 84.997826,112.002182 84.997826,112.002182 
z"/>
<path fill="#07A5C0" opacity="1.000000" stroke="none" 
	d="
M84.992577,89.993011 
	C79.669403,90.089882 81.579865,95.931541 78.403465,97.977974 
	C78.412048,95.589066 78.691635,93.170731 78.970642,90.374908 
	C80.112755,89.078934 81.255440,88.160461 82.859940,87.366791 
	C83.878685,88.325409 84.435631,89.159210 84.992577,89.993011 
z"/>
<path fill="#0390B2" opacity="1.000000" stroke="none" 
	d="
M110.402649,76.044647 
	C110.889061,76.785889 110.963440,77.502365 110.697380,78.557220 
	C108.155945,78.932861 105.945351,79.112358 103.756836,78.964706 
	C101.825356,78.834396 99.918488,78.339073 97.613441,78.002396 
	C95.818237,77.670250 94.410355,77.340645 93.002464,77.011032 
	C97.122566,73.097031 102.014023,75.437469 106.597160,75.381958 
	C107.725571,75.368279 108.859329,75.795410 110.402649,76.044647 
z"/>
<path fill="#07A5C0" opacity="1.000000" stroke="none" 
	d="
M92.679001,77.017876 
	C94.410355,77.340645 95.818237,77.670250 97.447388,78.316071 
	C95.098228,79.760590 92.527809,80.888901 89.957397,82.017212 
	C90.280075,80.585777 90.602753,79.154327 90.995117,77.400841 
	C91.495041,77.060768 91.925293,77.042747 92.679001,77.017876 
z"/>
<path fill="#08AEC6" opacity="1.000000" stroke="none" 
	d="
M89.899734,82.363403 
	C92.527809,80.888901 95.098228,79.760590 97.834702,78.318596 
	C99.918488,78.339073 101.825356,78.834396 103.756836,78.964706 
	C105.945351,79.112358 108.155945,78.932861 110.743698,78.914909 
	C111.899910,79.560226 112.669342,80.186241 113.704353,80.951767 
	C116.506058,84.199318 119.042183,87.307358 121.794060,91.108894 
	C122.126648,94.563675 121.036552,97.824570 124.988586,98.998245 
	C124.995659,99.443016 125.002724,99.887794 124.753288,100.833618 
	C123.984749,102.221710 123.472717,103.108757 122.659256,103.997513 
	C122.370804,105.047493 122.738586,106.270508 122.325623,107.109009 
	C121.353897,109.082085 120.009483,110.871597 118.767555,112.810799 
	C119.612419,113.259377 120.332573,113.641747 121.067902,114.273544 
	C121.083076,114.522964 121.140656,115.019394 121.140656,115.019394 
	C120.631241,115.615509 120.121819,116.211624 118.966782,116.911880 
	C111.541664,122.088699 103.810051,122.990784 95.734375,121.928352 
	C94.157005,121.720840 92.633873,120.644974 91.225494,119.749733 
	C90.045357,118.999596 89.069168,117.928612 88.002670,116.999695 
	C87.005081,115.567055 86.007500,114.134415 85.003876,112.351974 
	C84.997826,112.002182 85.000000,112.000000 85.310806,111.870872 
	C88.413086,112.494499 91.204575,113.247253 93.985176,114.258255 
	C93.960793,114.688278 93.947289,114.860062 93.795937,115.250244 
	C98.243752,119.182953 102.673317,118.514534 107.334671,114.993591 
	C108.438675,114.326721 109.209274,113.659660 109.990219,112.996483 
	C110.000572,113.000366 109.992310,112.979561 110.240967,112.981949 
	C110.489624,112.984344 110.986885,112.993164 111.341454,112.960678 
	C112.803230,111.300865 113.910439,109.673538 115.349884,108.030029 
	C116.125732,108.009407 116.569351,108.004967 117.180923,107.916138 
	C117.415588,107.727295 117.562737,107.567795 117.535332,107.527740 
	C117.402603,107.333740 117.223000,107.171814 117.047073,106.667770 
	C117.037880,105.895920 117.041611,105.454834 117.374191,104.819031 
	C118.121170,102.067513 118.539299,99.510719 119.056870,96.697685 
	C116.748932,91.349510 112.578087,87.978676 107.746132,84.993546 
	C107.327644,84.966148 107.160393,84.953072 106.996277,84.633972 
	C104.333649,83.885094 101.667892,83.442238 98.746384,82.992393 
	C98.320068,82.987663 98.149513,82.989922 97.603378,83.038391 
	C94.058319,85.114120 90.913994,87.184875 87.701294,89.143486 
	C86.919075,89.620361 85.912132,89.728615 85.008514,90.006363 
	C85.008514,90.006363 85.000969,90.000771 84.996773,89.996887 
	C84.435631,89.159210 83.878685,88.325409 83.142639,87.225952 
	C85.256386,85.543396 87.549232,84.126503 89.899734,82.363403 
z"/>
<path fill="#0B8AAB" opacity="1.000000" stroke="none" 
	d="
M87.790565,117.265488 
	C89.069168,117.928612 90.045357,118.999596 91.225494,119.749733 
	C92.633873,120.644974 94.157005,121.720840 95.734375,121.928352 
	C103.810051,122.990784 111.541664,122.088699 118.693649,117.030396 
	C116.596840,119.926086 114.127548,122.807411 111.118149,125.932724 
	C110.383217,126.455017 110.188393,126.733322 109.993568,127.011627 
	C109.993568,127.011627 109.996758,126.999802 110.002899,126.998230 
	C104.910149,126.989937 99.811256,126.983215 94.254242,126.977234 
	C90.934517,124.202927 88.072922,121.427864 85.070480,118.349846 
	C85.812569,117.875023 86.695518,117.703156 87.790565,117.265488 
z"/>
<path fill="#116598" opacity="1.000000" stroke="none" 
	d="
M121.474419,115.000496 
	C121.140656,115.019394 121.083076,114.522964 121.307144,114.270584 
	C121.531204,114.018204 122.010277,113.997330 122.304626,113.887337 
	C123.375900,113.495697 124.152840,113.214050 124.929779,112.932404 
	C124.929779,112.932411 124.966637,112.968712 124.984665,112.987305 
	C123.937859,113.664467 122.873016,114.323029 121.474419,115.000496 
z"/>
<path fill="#156291" opacity="1.000000" stroke="none" 
	d="
M110.227493,126.907303 
	C110.188393,126.733322 110.383217,126.455017 110.822372,126.083115 
	C110.864944,126.260666 110.663177,126.531822 110.227493,126.907303 
z"/>
<path fill="#0390B2" opacity="1.000000" stroke="none" 
	d="
M124.958618,112.557732 
	C124.152840,113.214050 123.375900,113.495697 122.303772,113.511330 
	C123.223923,110.363724 124.439255,107.482124 125.786797,104.287094 
	C124.539398,104.158516 123.750046,104.077156 122.960686,103.995796 
	C123.472717,103.108757 123.984749,102.221710 124.753387,101.167252 
	C125.679886,102.104248 126.349777,103.208672 127.043289,104.697510 
	C126.373764,107.448967 125.680603,109.816017 124.958618,112.557732 
z"/>
<path fill="#7588E3" opacity="1.000000" stroke="none" 
	d="
M134.570587,104.760254 
	C133.128922,106.704575 131.377640,108.807404 129.271011,110.899338 
	C130.697433,108.898537 132.479202,106.908653 134.570587,104.760254 
z"/>
<path fill="#7588E3" opacity="1.000000" stroke="none" 
	d="
M128.565903,110.918259 
	C128.457382,111.572861 128.023117,112.230751 127.252548,112.888733 
	C127.357544,112.233070 127.798851,111.577309 128.565903,110.918259 
z"/>
<path fill="#07A5C0" opacity="1.000000" stroke="none" 
	d="
M125.265686,98.763931 
	C121.036552,97.824570 122.126648,94.563675 122.022263,91.376007 
	C126.027725,92.169479 125.898293,95.297234 125.265686,98.763931 
z"/>
<path fill="#1D4592" opacity="1.000000" stroke="none" 
	d="
M125.260376,79.993988 
	C125.612556,80.400909 125.731674,80.854485 125.847710,81.659943 
	C125.398071,81.741058 124.951515,81.470284 124.265831,81.092957 
	C124.360237,80.671135 124.693779,80.355888 125.260376,79.993988 
z"/>
<path fill="#1D4592" opacity="1.000000" stroke="none" 
	d="
M125.642761,77.030106 
	C125.953392,77.197884 125.928490,77.368217 125.822701,77.784180 
	C125.340019,78.017738 124.938225,78.005676 124.233955,77.976067 
	C123.931473,77.958511 124.015747,77.473412 123.991684,77.228210 
	C124.414154,76.999565 124.860695,77.016113 125.642761,77.030106 
z"/>
<path fill="#087CA1" opacity="1.000000" stroke="none" 
	d="
M106.993141,84.939995 
	C107.160393,84.953072 107.327644,84.966148 107.783981,85.368164 
	C110.259842,89.424370 112.446609,93.091637 114.967468,97.319176 
	C114.984108,97.304184 114.041672,98.153175 112.720634,98.964256 
	C109.316765,91.713356 102.713814,91.663231 98.096695,91.922630 
	C96.519081,93.444283 95.312454,94.608116 94.145927,95.733261 
	C94.087982,96.102615 93.866882,97.359871 93.699333,98.624222 
	C93.543114,99.803062 92.902573,101.656822 93.406364,102.065414 
	C96.977692,104.961952 93.570366,105.662094 91.699959,106.985092 
	C90.871437,107.017204 90.397758,107.038940 89.562927,107.017090 
	C87.800346,106.651581 86.398903,106.329659 84.997467,106.007744 
	C84.995094,105.839546 84.992714,105.671349 85.394913,105.233215 
	C89.629532,102.020683 88.907806,97.812241 84.095596,95.027809 
	C84.515984,95.020126 84.936371,95.012444 85.954285,94.802711 
	C90.392036,91.723030 94.232262,88.845413 98.156197,86.193512 
	C98.424721,86.702675 98.681458,86.884735 99.010345,86.979614 
	C99.010582,86.993843 99.034912,86.978615 99.199539,87.309410 
	C102.080284,89.503593 104.693672,90.236298 106.955109,86.616920 
	C106.976479,85.834755 106.984810,85.387375 106.993141,84.939995 
z"/>
<path fill="#07A5C0" opacity="1.000000" stroke="none" 
	d="
M106.996277,84.633972 
	C106.984810,85.387375 106.976479,85.834755 106.518272,86.630432 
	C103.723900,86.978691 101.379410,86.978653 99.034912,86.978615 
	C99.034912,86.978615 99.010582,86.993843 98.906433,86.769089 
	C98.613464,86.283241 98.370193,86.091057 98.072487,85.967789 
	C94.232262,88.845413 90.392036,91.723030 86.269440,94.789139 
	C85.727554,93.502182 85.468040,92.026741 85.108521,90.278839 
	C85.912132,89.728615 86.919075,89.620361 87.701294,89.143486 
	C90.913994,87.184875 94.058319,85.114120 97.695038,83.212463 
	C98.442245,83.226669 98.722191,83.113029 99.002136,82.999390 
	C101.667892,83.442238 104.333649,83.885094 106.996277,84.633972 
z"/>
<path fill="#07A5C0" opacity="1.000000" stroke="none" 
	d="
M83.797012,95.141830 
	C88.907806,97.812241 89.629532,102.020683 85.394318,104.980896 
	C84.533134,104.850807 83.685463,104.718239 83.679085,104.553146 
	C83.559319,101.456352 83.539307,98.355698 83.797012,95.141830 
z"/>
<path fill="#07A5C0" opacity="1.000000" stroke="none" 
	d="
M84.998260,106.435272 
	C86.398903,106.329659 87.800346,106.651581 89.638603,107.347305 
	C91.382301,109.814079 92.689186,111.907036 93.996063,114.000000 
	C91.204575,113.247253 88.413086,112.494499 85.311829,111.869461 
	C85.001060,110.285721 85.000061,108.574265 84.998260,106.435272 
z"/>
<path fill="#0985A9" opacity="1.000000" stroke="none" 
	d="
M93.985176,114.258247 
	C92.689186,111.907036 91.382301,109.814079 89.999748,107.390892 
	C90.397758,107.038940 90.871437,107.017204 92.040344,106.992744 
	C99.154999,110.097252 105.577690,108.836960 112.003021,107.257462 
	C112.008659,107.679260 112.012093,107.847961 111.737732,108.264542 
	C111.302254,110.006004 111.144569,111.499588 110.986885,112.993164 
	C110.986885,112.993164 110.489624,112.984344 110.188553,112.844696 
	C109.800430,112.657814 109.713387,112.610588 109.626335,112.563362 
	C109.744179,112.706444 109.862030,112.849525 109.979874,112.992599 
	C109.209274,113.659660 108.438675,114.326721 107.150406,114.659615 
	C104.939934,113.891838 103.199913,112.975555 101.565178,113.135483 
	C98.984238,113.387978 96.473961,114.362770 93.933784,115.031845 
	C93.947289,114.860062 93.960793,114.688278 93.985176,114.258247 
z"/>
<path fill="#0390B2" opacity="1.000000" stroke="none" 
	d="
M113.099243,99.002167 
	C114.041672,98.153175 114.984108,97.304184 114.967468,97.319176 
	C112.446609,93.091637 110.259842,89.424370 108.035217,85.382477 
	C112.578087,87.978676 116.748932,91.349510 118.715622,96.772949 
	C117.192131,98.403091 116.109337,99.701729 114.693573,100.999878 
	C113.917732,100.998505 113.474869,100.997627 113.025337,100.663879 
	C113.045525,99.888054 113.072380,99.445114 113.099243,99.002167 
z"/>
<path fill="#07A5C0" opacity="1.000000" stroke="none" 
	d="
M93.795937,115.250244 
	C96.473961,114.362770 98.984238,113.387978 101.565178,113.135483 
	C103.199913,112.975555 104.939934,113.891838 106.817001,114.659424 
	C102.673317,118.514534 98.243752,119.182953 93.795937,115.250244 
z"/>
<path fill="#07A5C0" opacity="1.000000" stroke="none" 
	d="
M122.659256,103.997513 
	C123.750046,104.077156 124.539398,104.158516 125.786797,104.287094 
	C124.439255,107.482124 123.223923,110.363724 122.009430,113.621323 
	C122.010277,113.997330 121.531204,114.018204 121.291969,114.021164 
	C120.332573,113.641747 119.612419,113.259377 118.767555,112.810799 
	C120.009483,110.871597 121.353897,109.082085 122.325623,107.109009 
	C122.738586,106.270508 122.370804,105.047493 122.659256,103.997513 
z"/>
<path fill="#07A5C0" opacity="1.000000" stroke="none" 
	d="
M115.026535,101.000366 
	C116.109337,99.701729 117.192131,98.403091 118.616173,97.029182 
	C118.539299,99.510719 118.121170,102.067513 117.204674,104.574944 
	C116.156464,104.347847 115.606621,104.170120 115.048958,103.618530 
	C115.036263,102.496574 115.031395,101.748466 115.026535,101.000366 
z"/>
<path fill="#07A5C0" opacity="1.000000" stroke="none" 
	d="
M111.341454,112.960678 
	C111.144569,111.499588 111.302254,110.006004 112.112511,108.262184 
	C113.515938,108.023361 114.266785,108.034782 115.017639,108.046211 
	C113.910439,109.673538 112.803230,111.300865 111.341454,112.960678 
z"/>
<path fill="#0390B2" opacity="1.000000" stroke="none" 
	d="
M115.349884,108.030029 
	C114.266785,108.034782 113.515938,108.023361 112.390305,108.014297 
	C112.012093,107.847961 112.008659,107.679260 112.231232,107.239624 
	C112.457230,106.968681 112.914673,106.949898 113.270157,106.919205 
	C114.082161,105.925278 114.538681,104.962036 115.009964,103.997726 
	C115.024727,103.996643 115.056786,103.992393 115.056786,103.992393 
	C115.606621,104.170120 116.156464,104.347847 116.875824,104.769653 
	C117.041611,105.454834 117.037880,105.895920 117.029816,106.917961 
	C117.021317,107.666115 117.017143,107.833321 117.012962,108.000534 
	C116.569351,108.004967 116.125732,108.009407 115.349884,108.030029 
z"/>
<path fill="#07A5C0" opacity="1.000000" stroke="none" 
	d="
M117.180923,107.916138 
	C117.017143,107.833321 117.021317,107.666115 117.042747,107.248718 
	C117.223000,107.171814 117.402603,107.333740 117.535332,107.527740 
	C117.562737,107.567795 117.415588,107.727295 117.180923,107.916138 
z"/>
<path fill="#0390B2" opacity="1.000000" stroke="none" 
	d="
M98.746384,82.992401 
	C98.722191,83.113029 98.442245,83.226669 98.070633,83.166245 
	C98.149513,82.989922 98.320068,82.987663 98.746384,82.992401 
z"/>
<path fill="#075D87" opacity="1.000000" stroke="none" 
	d="
M112.914673,106.949898 
	C112.914673,106.949898 112.457230,106.968681 112.229019,106.986526 
	C105.577690,108.836960 99.154999,110.097252 92.395172,106.982361 
	C93.570366,105.662094 96.977692,104.961952 93.406364,102.065414 
	C92.902573,101.656822 93.543114,99.803062 93.699333,98.624222 
	C93.866882,97.359871 94.087982,96.102615 94.145927,95.733261 
	C95.312454,94.608116 96.519081,93.444283 98.096695,91.922630 
	C102.713814,91.663231 109.316765,91.713356 112.720634,98.964256 
	C113.072380,99.445114 113.045525,99.888054 112.709595,100.814064 
	C110.728271,103.094696 107.356316,105.082008 112.938789,106.290451 
	C112.944221,106.510551 112.914673,106.949898 112.914673,106.949898 
M98.453133,99.478226 
	C99.177025,101.212769 99.473488,103.516457 100.769234,104.489571 
	C101.693176,105.183456 104.824570,104.627144 105.424049,103.664970 
	C106.305969,102.249496 105.808899,99.974846 105.551201,97.475739 
	C102.794075,95.542854 100.439674,95.324242 98.453133,99.478226 
z"/>
<path fill="#0390B2" opacity="1.000000" stroke="none" 
	d="
M99.199539,87.309410 
	C101.379410,86.978653 103.723900,86.978691 106.505234,86.965218 
	C104.693672,90.236298 102.080284,89.503593 99.199539,87.309410 
z"/>
<path fill="#0390B2" opacity="1.000000" stroke="none" 
	d="
M98.156197,86.193512 
	C98.370193,86.091057 98.613464,86.283241 98.906204,86.754860 
	C98.681458,86.884735 98.424721,86.702675 98.156197,86.193512 
z"/>
<path fill="#0390B2" opacity="1.000000" stroke="none" 
	d="
M109.990227,112.996490 
	C109.862030,112.849525 109.744179,112.706444 109.626335,112.563362 
	C109.713387,112.610588 109.800430,112.657814 109.939896,112.842300 
	C109.992310,112.979561 110.000572,113.000366 109.990227,112.996490 
z"/>
<path fill="#087CA1" opacity="1.000000" stroke="none" 
	d="
M112.933357,106.070351 
	C107.356316,105.082008 110.728271,103.094696 112.716263,101.146942 
	C113.474869,100.997627 113.917732,100.998505 114.693565,100.999870 
	C115.031395,101.748466 115.036263,102.496574 115.048958,103.618530 
	C115.056786,103.992393 115.024727,103.996643 114.737442,104.122055 
	C113.944565,104.855095 113.438965,105.462723 112.933357,106.070351 
z"/>
<path fill="#0985A9" opacity="1.000000" stroke="none" 
	d="
M112.938789,106.290451 
	C113.438965,105.462723 113.944565,104.855095 114.722679,104.123131 
	C114.538681,104.962036 114.082161,105.925278 113.270157,106.919205 
	C112.914673,106.949898 112.944221,106.510551 112.938789,106.290451 
z"/>
<path fill="#1F387C" opacity="1.000000" stroke="none" 
	d="
M105.899261,98.066193 
	C105.808899,99.974846 106.305969,102.249496 105.424049,103.664970 
	C104.824570,104.627144 101.693176,105.183456 100.769234,104.489571 
	C99.473488,103.516457 99.177025,101.212769 98.889725,99.562286 
	C103.314110,103.135155 103.739677,103.032852 105.899261,98.066193 
z"/>
<path fill="#1D3A81" opacity="1.000000" stroke="none" 
	d="
M105.725235,97.770966 
	C103.739677,103.032852 103.314110,103.135155 99.164886,99.330162 
	C100.439674,95.324242 102.794075,95.542854 105.725235,97.770966 
z"/>
</svg>